<svg width="17" height="16" viewBox="0 0 17 16" fill="none" xmlns="http://www.w3.org/2000/svg">
<path fill-rule="evenodd" clip-rule="evenodd" d="M11.424 5.33266H13.5C14.236 5.33266 14.8333 5.93066 14.8333 6.66599V7.99933H1.5V6.66599C1.5 5.93066 2.098 5.33266 2.83333 5.33266H4.90933C4.60867 5.17599 4.324 4.98466 4.086 4.74733C3.306 3.96733 3.306 2.69866 4.086 1.91933C4.84133 1.16399 6.15733 1.16399 6.914 1.91799C8.00533 3.00933 8.15267 5.06333 8.16533 5.29399C8.16606 5.30165 8.1644 5.30852 8.16274 5.31535C8.16137 5.321 8.16 5.32662 8.16 5.33266H8.17333C8.17333 5.32656 8.17194 5.32088 8.17055 5.31524C8.16891 5.30854 8.16728 5.30189 8.168 5.29466C8.18133 5.06399 8.328 3.00999 9.41933 1.91866C10.176 1.16333 11.4907 1.16399 12.2473 1.91799C13.0267 2.69933 13.0267 3.96799 12.2473 4.74733C12.0093 4.98466 11.7247 5.17599 11.424 5.33266ZM5.02867 3.80466C4.76867 3.54399 4.76867 3.12133 5.02867 2.86133C5.154 2.73533 5.32133 2.66666 5.5 2.66666C5.67867 2.66666 5.846 2.73533 5.97133 2.86133C6.36467 3.25466 6.594 3.95999 6.71667 4.54799C6.13 4.42599 5.41933 4.19533 5.02867 3.80466ZM9.616 4.54933C9.73933 3.96066 9.968 3.25533 10.362 2.86199C10.4873 2.73533 10.6547 2.66666 10.8333 2.66666C11.012 2.66666 11.1793 2.73533 11.304 2.86066C11.564 3.12133 11.5647 3.54399 11.3047 3.80466C10.9107 4.19866 10.2047 4.42799 9.616 4.54933ZM2.16667 9.33265V13.3327C2.16667 14.068 2.76467 14.666 3.5 14.666H7.5V9.33265H2.16667ZM8.83333 9.33265V14.666H12.8333C13.5693 14.666 14.1667 14.068 14.1667 13.3327V9.33265H8.83333Z" fill="white"/>
</svg>
